<svg width="180" height="60" viewBox="0 0 180 60" fill="none" xmlns="http://www.w3.org/2000/svg">
<rect width="180" height="60" rx="8" fill="white"/>
<path d="M87.2597 27.1215C84.5415 27.1215 82.2525 29.2492 82.2525 32.0861C82.2525 34.9229 84.5415 37.0506 87.2597 37.0506C89.9778 37.0506 92.2668 34.9229 92.2668 32.0861C92.4099 29.2492 90.1209 27.1215 87.2597 27.1215ZM87.2597 35.0648C85.686 35.0648 84.3984 33.7882 84.3984 32.0861C84.3984 30.2421 85.686 29.1073 87.2597 29.1073C88.8333 29.1073 90.1209 30.3839 90.1209 32.0861C90.1209 33.7882 88.8333 35.0648 87.2597 35.0648ZM76.2439 27.1215C73.5258 27.1215 71.2368 29.2492 71.2368 32.0861C71.2368 34.9229 73.5258 37.0506 76.2439 37.0506C78.9621 37.0506 81.2511 34.9229 81.2511 32.0861C81.3941 29.2492 79.1052 27.1215 76.2439 27.1215ZM76.2439 35.0648C74.6702 35.0648 73.3827 33.7882 73.3827 32.0861C73.3827 30.2421 74.6702 29.1073 76.2439 29.1073C77.8176 29.1073 79.1052 30.3839 79.1052 32.0861C79.1052 33.7882 77.8176 35.0648 76.2439 35.0648ZM63.2253 28.6818V30.8095H68.3755C68.2325 31.9442 67.8033 32.9371 67.231 33.5045C66.5157 34.2137 65.3712 35.0648 63.2253 35.0648C60.078 35.0648 57.6459 32.5116 57.6459 29.391C57.6459 26.2705 60.078 23.7173 63.2253 23.7173C64.9421 23.7173 66.2296 24.4265 67.088 25.2775L68.6617 23.7173C67.3741 22.4407 65.6574 21.5896 63.3684 21.5896C59.0765 21.5896 55.5 25.1357 55.5 29.391C55.5 33.6463 59.0765 37.1924 63.3684 37.1924C65.6574 37.1924 67.5172 36.4832 68.8047 35.0648C70.2353 33.6463 70.6645 31.6605 70.6645 30.1002C70.6645 29.6747 70.6645 29.1073 70.5215 28.8236H63.2253V28.6818ZM116.873 30.2421C116.444 29.1073 115.157 27.1215 112.582 27.1215C110.006 27.1215 107.861 29.1073 107.861 32.0861C107.861 34.9229 110.006 37.0506 112.868 37.0506C115.157 37.0506 116.444 35.6322 117.016 34.7811L115.3 33.6463C114.727 34.4974 114.012 35.0648 112.868 35.0648C111.723 35.0648 111.008 34.4974 110.436 33.5045L117.16 30.8095L116.873 30.2421ZM110.006 31.9442C110.006 29.9584 111.58 28.9655 112.582 28.9655C113.44 28.9655 114.155 29.391 114.441 29.9584L110.006 31.9442ZM104.427 36.7669H106.573V22.157H104.427V36.7669ZM100.85 28.2563C100.278 27.6889 99.2768 27.1215 98.1323 27.1215C95.5572 27.1215 93.2682 29.2492 93.2682 32.0861C93.2682 34.9229 95.5572 37.0506 98.1323 37.0506C99.2768 37.0506 100.278 36.4832 100.85 35.9158H100.994V36.6251C100.994 38.469 99.9921 39.6038 98.2754 39.6038C96.9878 39.6038 96.1295 38.6109 95.7003 37.7598L93.6974 38.6109C94.2697 39.8875 95.7003 41.5896 98.1323 41.5896C100.707 41.5896 102.853 40.0293 102.853 36.3414V27.4052H100.707V28.2563H100.85ZM98.2754 35.0648C96.7017 35.0648 95.4142 33.7882 95.4142 32.0861C95.4142 30.3839 96.7017 29.1073 98.2754 29.1073C99.8491 29.1073 100.994 30.3839 100.994 32.0861C100.994 33.7882 99.8491 35.0648 98.2754 35.0648ZM127.174 22.157H121.881V36.7669H124.026V31.235H127.174C129.606 31.235 132.038 29.5329 132.038 26.696C132.038 23.8591 129.606 22.157 127.174 22.157ZM127.174 29.1073H124.026V24.1428H127.174C128.891 24.1428 129.749 25.5612 129.749 26.696C129.892 27.8307 128.891 29.1073 127.174 29.1073ZM140.908 27.1215C139.334 27.1215 137.617 27.8307 136.902 29.391L138.905 30.2421C139.334 29.391 140.049 29.1073 140.908 29.1073C142.052 29.1073 143.197 29.8166 143.197 30.9513V31.0931C142.768 30.8095 141.909 30.5258 140.908 30.5258C138.762 30.5258 136.616 31.6605 136.616 33.7882C136.616 35.774 138.333 37.0506 140.335 37.0506C141.766 37.0506 142.624 36.3414 143.197 35.6322H143.34V36.7669H145.486V31.0931C145.343 28.54 143.483 27.1215 140.908 27.1215ZM140.622 35.0648C139.906 35.0648 138.905 34.6392 138.905 33.7882C138.905 32.6534 140.192 32.2279 141.194 32.2279C142.195 32.2279 142.624 32.3697 143.197 32.6534C143.054 34.0719 141.909 35.0648 140.622 35.0648ZM153.211 27.4052L150.636 33.7882H150.493L147.918 27.4052H145.486L149.491 36.3414L147.202 41.3059H149.491L155.5 27.4052H153.211ZM133.182 36.7669H135.328V22.157H133.182V36.7669Z" fill="#333333"/>
<path d="M24.9862 17.9871C24.6621 18.31 24.5 18.7944 24.5 19.4402V41.7214C24.5 42.3673 24.6621 42.8516 24.9862 43.1746L37.466 30.7423V30.5808V30.4194L24.9862 17.9871Z" fill="url(#paint0_linear)"/>
<path d="M41.8421 34.7786L37.6282 30.5806V30.4192V30.2577L41.8421 26.0598H42.0042L47.0285 28.8046C48.4872 29.6119 48.4872 30.9036 47.0285 31.7109L41.8421 34.7786Z" fill="url(#paint1_linear)"/>
<path d="M41.8421 34.7785L37.6281 30.5806L24.9863 43.1743C25.4726 43.6587 26.2829 43.6587 27.0933 43.1743L41.8421 34.7785Z" fill="url(#paint2_linear)"/>
<path d="M41.8421 26.2213L27.0933 17.8254C26.2829 17.3411 25.4726 17.3411 24.9863 17.8254L37.6281 30.4192L41.8421 26.2213Z" fill="url(#paint3_linear)"/>
<path opacity="0.2" d="M41.8421 34.6172L27.0933 43.013C26.2829 43.4974 25.4726 43.4974 24.9863 43.013C25.4726 43.4974 26.1209 43.4974 27.0933 43.013L41.8421 34.6172Z" fill="#333333"/>
<path opacity="0.12" d="M24.9862 42.8516C24.6621 42.5286 24.5 42.0443 24.5 41.3984V41.5599C24.5 42.3672 24.6621 42.6901 24.9862 42.8516Z" fill="#333333"/>
<path opacity="0.12" d="M46.8664 31.8722L41.842 34.7785L42.0041 34.9399L46.8664 31.8722C47.5146 31.5493 48.0009 31.0649 48.0009 30.5806C47.8388 30.9035 47.5146 31.3879 46.8664 31.8722Z" fill="#333333"/>
<path opacity="0.25" d="M27.0932 17.9869L46.8663 29.1275C47.5146 29.4504 47.8387 29.9348 48.0008 30.4192C48.0008 29.9348 47.6767 29.289 46.8663 28.9661L27.0932 17.9869C25.6345 17.0182 24.5 17.664 24.5 19.2786V19.44C24.5 17.8254 25.6345 17.1796 27.0932 17.9869Z" fill="white"/>
<defs>
<linearGradient id="paint0_linear" x1="36.5232" y1="19.1069" x2="19.587" y2="36.1079" gradientUnits="userSpaceOnUse">
<stop stop-color="#00A0FF"/>
<stop offset="0.00657445" stop-color="#00A1FF"/>
<stop offset="0.2601" stop-color="#00BEFF"/>
<stop offset="0.5122" stop-color="#00D2FF"/>
<stop offset="0.7604" stop-color="#00DFFF"/>
<stop offset="1" stop-color="#00E3FF"/>
</linearGradient>
<linearGradient id="paint1_linear" x1="48.7147" y1="30.5022" x2="24.2026" y2="30.5022" gradientUnits="userSpaceOnUse">
<stop stop-color="#FFE000"/>
<stop offset="0.4087" stop-color="#FFBD00"/>
<stop offset="0.7754" stop-color="#FFA500"/>
<stop offset="1" stop-color="#FF9C00"/>
</linearGradient>
<linearGradient id="paint2_linear" x1="39.5899" y1="32.8179" x2="16.6229" y2="55.8725" gradientUnits="userSpaceOnUse">
<stop stop-color="#FF3A44"/>
<stop offset="1" stop-color="#C31162"/>
</linearGradient>
<linearGradient id="paint3_linear" x1="21.8319" y1="10.4949" x2="32.0876" y2="20.7898" gradientUnits="userSpaceOnUse">
<stop stop-color="#32A071"/>
<stop offset="0.0685" stop-color="#2DA771"/>
<stop offset="0.4762" stop-color="#15CF74"/>
<stop offset="0.8009" stop-color="#06E775"/>
<stop offset="1" stop-color="#00F076"/>
</linearGradient>
</defs>
</svg>
