<svg width="180" height="61" viewBox="0 0 180 61" fill="none" xmlns="http://www.w3.org/2000/svg">
<rect width="180" height="60.2553" rx="8" fill="white"/>
<path d="M73.2988 32.5544H68.0013L66.7789 36.3433H64.4697L69.4955 22.2705H71.8046L76.8304 36.3433H74.5212L73.2988 32.5544ZM68.4088 30.7953H72.7554L70.718 24.7062L68.4088 30.7953Z" fill="#333333"/>
<path d="M87.833 31.2013C87.833 34.3135 86.0672 36.4785 83.6222 36.4785C82.1281 36.4785 81.0414 35.802 80.3623 34.7194V39.7261H78.189V26.1946H80.2264V27.9537C80.7698 26.8712 81.9922 26.1946 83.4864 26.1946C86.0672 26.0593 87.833 28.089 87.833 31.2013ZM85.6597 31.2013C85.6597 29.1715 84.573 27.8184 82.9431 27.8184C81.3131 27.8184 80.2264 29.1715 80.2264 31.2013C80.2264 33.231 81.3131 34.5841 82.9431 34.5841C84.573 34.7194 85.6597 33.3663 85.6597 31.2013Z" fill="#333333"/>
<path d="M99.1068 31.2013C99.1068 34.3135 97.341 36.4785 94.896 36.4785C93.4019 36.4785 92.3153 35.802 91.6361 34.7194V39.7261H89.5986V26.1946H91.6361V27.9537C92.1794 26.8712 93.4019 26.1946 94.896 26.1946C97.4768 26.0593 99.1068 28.089 99.1068 31.2013ZM96.9335 31.2013C96.9335 29.1715 95.8469 27.8184 94.2169 27.8184C92.5869 27.8184 91.5003 29.1715 91.5003 31.2013C91.5003 33.231 92.5869 34.5841 94.2169 34.5841C95.9827 34.7194 96.9335 33.3663 96.9335 31.2013Z" fill="#333333"/>
<path d="M106.713 32.4192C106.849 33.7723 108.207 34.7195 110.109 34.7195C111.875 34.7195 113.097 33.7723 113.097 32.5545C113.097 31.472 112.282 30.7954 110.517 30.3895L108.751 29.9835C106.17 29.3069 104.948 28.2244 104.948 26.1947C104.948 23.759 107.121 22.1353 110.109 22.1353C113.097 22.1353 115.135 23.759 115.135 26.1947H112.962C112.826 24.8415 111.739 23.8943 109.973 23.8943C108.343 23.8943 107.121 24.7062 107.121 25.9241C107.121 26.8713 107.8 27.5478 109.702 27.9538L111.196 28.3597C114.048 29.0363 115.271 30.2541 115.271 32.2839C115.271 34.8548 113.233 36.4786 109.837 36.4786C106.713 36.4786 104.676 34.8548 104.54 32.2839H106.713V32.4192Z" fill="#333333"/>
<path d="M119.889 23.759V26.1947H121.791V27.8185H119.889V33.5017C119.889 34.3136 120.297 34.7195 121.112 34.7195C121.383 34.7195 121.655 34.7195 121.791 34.7195V36.3433C121.519 36.3433 121.112 36.4786 120.568 36.4786C118.531 36.4786 117.716 35.6667 117.716 33.7723V27.9538H116.222V26.33H117.716V23.8943H119.889V23.759Z" fill="#333333"/>
<path d="M122.877 31.2011C122.877 27.9535 124.779 25.9238 127.767 25.9238C130.756 25.9238 132.657 27.9535 132.657 31.2011C132.657 34.4487 130.756 36.4784 127.767 36.4784C124.779 36.4784 122.877 34.4487 122.877 31.2011ZM130.484 31.2011C130.484 29.0361 129.533 27.6829 127.767 27.6829C126.002 27.6829 125.051 29.0361 125.051 31.2011C125.051 33.3661 126.002 34.7193 127.767 34.7193C129.533 34.7193 130.484 33.5015 130.484 31.2011Z" fill="#333333"/>
<path d="M134.423 26.1944H136.46V27.9535C136.732 26.7357 137.683 26.0591 138.905 26.0591C139.177 26.0591 139.449 26.0591 139.584 26.1944V28.0888C139.449 27.9535 139.041 27.9535 138.634 27.9535C137.275 27.9535 136.46 28.9007 136.46 30.2538V36.343H134.423V26.1944Z" fill="#333333"/>
<path d="M149.364 33.3661C149.093 35.2605 147.327 36.4783 145.018 36.4783C142.03 36.4783 140.128 34.4486 140.128 31.3364C140.128 28.0888 142.03 26.0591 144.882 26.0591C147.734 26.0591 149.5 27.9535 149.5 31.0657V31.7423H142.301V31.8776C142.301 33.6367 143.388 34.7192 145.018 34.7192C146.24 34.7192 147.055 34.178 147.327 33.2308H149.364V33.3661ZM142.165 30.2538H147.327C147.327 28.6301 146.24 27.6829 144.746 27.6829C143.388 27.6829 142.301 28.7654 142.165 30.2538Z" fill="#333333"/>
<path d="M49.7209 31.0159C49.7209 27.4638 52.6383 25.6877 52.8003 25.6877C51.1796 23.2659 48.5864 22.9429 47.6139 22.9429C45.507 22.7815 43.2379 24.2346 42.2655 24.2346C41.131 24.2346 39.3481 22.9429 37.5653 22.9429C35.1342 22.9429 33.0272 24.3961 31.7306 26.495C29.1375 30.8544 31.0823 37.1513 33.5135 40.7034C34.648 42.4794 36.1067 44.2554 37.8895 44.2554C39.6723 44.2554 40.3206 43.1252 42.5896 43.1252C44.6966 43.1252 45.3449 44.2554 47.2898 44.2554C49.2347 44.2554 50.3692 42.4794 51.6658 40.8648C53.1245 38.9273 53.6107 36.9898 53.6107 36.8284C53.4486 36.6669 49.7209 35.2138 49.7209 31.0159Z" fill="#333333"/>
<path d="M46.1553 20.5208C47.1277 19.3906 47.776 17.6146 47.6139 16C46.1553 16 44.5345 16.9688 43.4 18.099C42.4275 19.0677 41.7793 20.8437 41.9413 22.4583C43.5621 22.6198 45.1828 21.651 46.1553 20.5208Z" fill="#333333"/>
</svg>
