<svg width="108" height="108" viewBox="0 0 108 108" fill="none" xmlns="http://www.w3.org/2000/svg">
<path d="M40.9971 14.9248V37.5061L62.4359 27.4006C62.4359 27.4006 57.0762 14.9248 40.9971 14.9248Z" fill="white"/>
<g clip-path="url(#clip0)">
<path d="M45.0489 71.7682C61.2698 71.7682 74.4195 58.6506 74.4195 42.4693C74.4195 26.288 61.2698 13.1704 45.0489 13.1704C28.8279 13.1704 15.6782 26.288 15.6782 42.4693C15.6782 58.6506 28.8279 71.7682 45.0489 71.7682Z" fill="white" stroke="#3D4043" stroke-width="3" stroke-miterlimit="10" stroke-linecap="round" stroke-linejoin="round"/>
<path d="M45.0488 63.3971C56.6352 63.3971 66.0279 54.0274 66.0279 42.4693C66.0279 30.9112 56.6352 21.5415 45.0488 21.5415C33.4625 21.5415 24.0698 30.9112 24.0698 42.4693C24.0698 54.0274 33.4625 63.3971 45.0488 63.3971Z" fill="#FFDA00" stroke="#3D4043" stroke-width="3" stroke-miterlimit="10" stroke-linecap="round" stroke-linejoin="round"/>
<path d="M89.8043 63.3969C89.8043 63.3969 87.0071 63.3969 87.0071 60.6065C87.0071 57.8162 89.8043 31.3076 89.8043 31.3076C89.8043 31.3076 91.2029 24.8898 87.0071 24.3317C82.8113 23.7736 82.8113 28.5173 82.8113 28.5173L80.0141 46.6547C80.0141 46.6547 80.0141 50.8402 77.2169 50.8402C74.4197 50.8402 74.4197 46.6547 74.4197 46.6547V24.8898C74.4197 24.8898 74.8393 18.751 70.2239 18.751C65.4687 18.751 66.0281 24.8898 66.0281 24.8898V42.4691C66.0281 42.4691 64.3498 39.8183 60.4337 41.0739C56.2379 42.4691 57.6365 48.0499 57.6365 48.0499L52.0421 60.6065C52.0421 60.6065 45.0491 75.9536 57.6365 84.3247L58.1959 91.3006H82.8113V84.7432C82.8113 84.7432 89.105 80.2786 89.8043 63.3969Z" fill="white" stroke="#3D4043" stroke-width="3" stroke-miterlimit="10" stroke-linecap="round" stroke-linejoin="round"/>
<path d="M49.2451 52.2355L51.7625 63.5365C51.7625 63.5365 52.8814 70.0939 57.6367 68.9778C61.9723 67.8616 60.4339 62.0018 60.4339 62.0018L57.6367 49.4452C57.6367 49.4452 56.2381 44.1435 52.0423 45.2596C47.7066 46.3758 49.2451 52.2355 49.2451 52.2355Z" fill="white" stroke="#3D4043" stroke-width="3" stroke-miterlimit="10" stroke-linecap="round" stroke-linejoin="round"/>
<path d="M57.0774 46.2361L60.0145 59.2114C60.0145 59.2114 61.2732 65.9083 66.8676 64.3736C71.483 63.1179 69.2452 55.0258 69.2452 55.0258L66.3082 43.1667C66.3082 43.1667 65.3292 37.307 60.1543 38.5626C55.3991 39.6788 57.0774 46.2361 57.0774 46.2361Z" fill="white" stroke="#3D4043" stroke-width="3" stroke-miterlimit="10" stroke-linecap="round" stroke-linejoin="round"/>
<path d="M72.7418 68.8382C72.7418 68.8382 65.3292 67.8616 63.6509 75.9536Z" fill="white"/>
<path d="M72.7418 68.8382C72.7418 68.8382 65.3292 67.8616 63.6509 75.9536" stroke="#3D4043" stroke-width="3" stroke-miterlimit="10" stroke-linecap="round" stroke-linejoin="round"/>
<path d="M82.9511 59.909L73.4406 66.1873C73.4406 66.1873 67.7063 70.2333 70.9231 74.4189C73.8602 78.3254 79.1749 74.1399 79.1749 74.1399L89.105 67.443C89.105 67.443 94.2798 64.5131 91.3427 60.188C88.5455 56.142 82.9511 59.909 82.9511 59.909Z" fill="white" stroke="#3D4043" stroke-width="3" stroke-miterlimit="10" stroke-linecap="round" stroke-linejoin="round"/>
<path d="M80.014 95.4863H60.4336C58.056 95.4863 56.2378 93.6726 56.2378 91.3008C56.2378 88.929 58.056 87.1152 60.4336 87.1152H80.014C82.3916 87.1152 84.2098 88.929 84.2098 91.3008C84.2098 93.6726 82.3916 95.4863 80.014 95.4863Z" fill="white" stroke="#3D4043" stroke-width="3" stroke-miterlimit="10" stroke-linecap="round" stroke-linejoin="round"/>
<path d="M45.0488 22.9365V40.6554L61.832 32.7028C61.832 32.7028 57.6362 22.9365 45.0488 22.9365Z" fill="white"/>
</g>
<defs>
<clipPath id="clip0">
<rect width="79.3007" height="85.1063" fill="white" transform="translate(14.2798 11.7751)"/>
</clipPath>
</defs>
</svg>
