<svg width="108" height="108" viewBox="0 0 108 108" fill="none" xmlns="http://www.w3.org/2000/svg">
<path d="M52.3354 67.7785H7.90661C5.56825 67.7785 3.67529 65.9298 3.67529 63.6461V40.8634C3.67529 38.5797 5.56825 36.731 7.90661 36.731H52.3215C54.6599 36.731 56.5528 38.5797 56.5528 40.8634V63.6325C56.5667 65.9298 54.6738 67.7785 52.3354 67.7785Z" fill="white" stroke="#333333" stroke-width="3" stroke-miterlimit="10" stroke-linecap="round" stroke-linejoin="round"/>
<path d="M10.8989 61.2263V58.3717C10.8989 55.6802 13.1538 53.478 15.9097 53.478C18.6656 53.478 20.9205 55.6802 20.9205 58.3717V61.2263" fill="white"/>
<path d="M10.8989 61.2263V58.3717C10.8989 55.6802 13.1538 53.478 15.9097 53.478C18.6656 53.478 20.9205 55.6802 20.9205 58.3717V61.2263" stroke="#333333" stroke-width="3" stroke-miterlimit="10" stroke-linecap="round" stroke-linejoin="round"/>
<path d="M15.9095 50.474C17.4239 50.474 18.6515 49.2751 18.6515 47.7961C18.6515 46.3171 17.4239 45.1182 15.9095 45.1182C14.3951 45.1182 13.1675 46.3171 13.1675 47.7961C13.1675 49.2751 14.3951 50.474 15.9095 50.474Z" fill="white" stroke="#333333" stroke-width="3" stroke-miterlimit="10" stroke-linecap="round" stroke-linejoin="round"/>
<path d="M30.4692 46.1377H49.9556" stroke="#333333" stroke-width="3" stroke-miterlimit="10" stroke-linecap="round" stroke-linejoin="round"/>
<path d="M30.4692 52.2549H49.9556" stroke="#333333" stroke-width="3" stroke-miterlimit="10" stroke-linecap="round" stroke-linejoin="round"/>
<path d="M30.4692 58.3718H49.9556" stroke="#333333" stroke-width="3" stroke-miterlimit="10" stroke-linecap="round" stroke-linejoin="round"/>
<path d="M72.9252 52.9955H28.4965C26.1581 52.9955 24.2651 51.1468 24.2651 48.8631V26.0804C24.2651 23.7967 26.1581 21.948 28.4965 21.948H72.9113C75.2497 21.948 77.1426 23.7967 77.1426 26.0804V48.8495C77.1566 51.1468 75.2636 52.9955 72.9252 52.9955Z" fill="white" stroke="#333333" stroke-width="3" stroke-miterlimit="10" stroke-linecap="round" stroke-linejoin="round"/>
<path d="M31.4888 46.4433V43.5887C31.4888 40.8972 33.7436 38.6951 36.4995 38.6951C39.2555 38.6951 41.5103 40.8972 41.5103 43.5887V46.4433" fill="white"/>
<path d="M31.4888 46.4433V43.5887C31.4888 40.8972 33.7436 38.6951 36.4995 38.6951C39.2555 38.6951 41.5103 40.8972 41.5103 43.5887V46.4433" stroke="#333333" stroke-width="3" stroke-miterlimit="10" stroke-linecap="round" stroke-linejoin="round"/>
<path d="M36.4993 35.691C38.0137 35.691 39.2413 34.4921 39.2413 33.0131C39.2413 31.5341 38.0137 30.3352 36.4993 30.3352C34.985 30.3352 33.7573 31.5341 33.7573 33.0131C33.7573 34.4921 34.985 35.691 36.4993 35.691Z" fill="white" stroke="#333333" stroke-width="3" stroke-miterlimit="10" stroke-linecap="round" stroke-linejoin="round"/>
<path d="M51.0591 31.3547H70.5454" stroke="#333333" stroke-width="3" stroke-miterlimit="10" stroke-linecap="round" stroke-linejoin="round"/>
<path d="M51.0591 37.4719H70.5454" stroke="#333333" stroke-width="3" stroke-miterlimit="10" stroke-linecap="round" stroke-linejoin="round"/>
<path d="M51.0591 43.5889H70.5454" stroke="#333333" stroke-width="3" stroke-miterlimit="10" stroke-linecap="round" stroke-linejoin="round"/>
<path d="M98.0218 85.9432H44.719C41.5361 85.9432 38.9595 83.4267 38.9595 80.3182V49.3071C38.9595 46.1985 41.5361 43.6821 44.719 43.6821H98.0029C101.186 43.6821 103.762 46.1985 103.762 49.3071V80.2997C103.781 83.4267 101.205 85.9432 98.0218 85.9432Z" fill="#FFE14E" stroke="#333333" stroke-width="3" stroke-miterlimit="10" stroke-linecap="round" stroke-linejoin="round"/>
<path d="M48.7925 77.0245V73.1389C48.7925 69.4753 51.8617 66.4778 55.613 66.4778C59.3643 66.4778 62.4335 69.4753 62.4335 73.1389V77.0245" fill="white"/>
<path d="M48.7925 77.0245V73.1389C48.7925 69.4753 51.8617 66.4778 55.613 66.4778C59.3643 66.4778 62.4335 69.4753 62.4335 73.1389V77.0245" stroke="#333333" stroke-width="3" stroke-miterlimit="10" stroke-linecap="round" stroke-linejoin="round"/>
<path d="M55.6132 62.3888C57.6745 62.3888 59.3455 60.7569 59.3455 58.7437C59.3455 56.7306 57.6745 55.0986 55.6132 55.0986C53.5519 55.0986 51.8809 56.7306 51.8809 58.7437C51.8809 60.7569 53.5519 62.3888 55.6132 62.3888Z" fill="white" stroke="#333333" stroke-width="3" stroke-miterlimit="10" stroke-linecap="round" stroke-linejoin="round"/>
<path d="M73.2788 56.4863H94.6356" stroke="#333333" stroke-width="3" stroke-miterlimit="10" stroke-linecap="round" stroke-linejoin="round"/>
<path d="M73.2788 64.8127H89.4028" stroke="#333333" stroke-width="3" stroke-miterlimit="10" stroke-linecap="round" stroke-linejoin="round"/>
<path d="M73.2788 73.1392H92.6276" stroke="#333333" stroke-width="3" stroke-miterlimit="10" stroke-linecap="round" stroke-linejoin="round"/>
</svg>
