<svg width="32" height="32" viewBox="0 0 32 32" fill="none" xmlns="http://www.w3.org/2000/svg">
<circle cx="16" cy="16" r="15" fill="white" stroke="#FFE14E" stroke-width="2"/>
<path d="M14.186 19.464H16.49C16.22 16.926 19.352 16.062 19.352 13.506C19.352 11.202 17.768 10.086 15.608 10.086C14.042 10.086 12.764 10.824 11.828 11.886L13.286 13.218C13.862 12.624 14.492 12.21 15.284 12.21C16.22 12.21 16.814 12.786 16.814 13.686C16.814 15.396 13.754 16.566 14.186 19.464ZM15.338 24.252C16.292 24.252 16.994 23.496 16.994 22.524C16.994 21.534 16.292 20.796 15.338 20.796C14.402 20.796 13.7 21.534 13.7 22.524C13.7 23.496 14.402 24.252 15.338 24.252Z" fill="#FFE14E"/>
</svg>
