<svg width="108" height="108" viewBox="0 0 108 108" fill="none" xmlns="http://www.w3.org/2000/svg">
<path d="M24.2808 47.1672V33.481C24.2808 29.0863 27.902 25.4451 32.2724 25.4451C36.6429 25.4451 40.2641 29.0863 40.2641 33.481V47.1672" fill="white"/>
<path d="M24.2808 47.1672V33.481C24.2808 29.0863 27.902 25.4451 32.2724 25.4451C36.6429 25.4451 40.2641 29.0863 40.2641 33.481V47.1672" stroke="#333333" stroke-width="3" stroke-miterlimit="10" stroke-linecap="round" stroke-linejoin="round"/>
<path d="M32.3983 20.2971C34.812 20.2971 36.7687 18.3295 36.7687 15.9025C36.7687 13.4754 34.812 11.5078 32.3983 11.5078C29.9845 11.5078 28.0278 13.4754 28.0278 15.9025C28.0278 18.3295 29.9845 20.2971 32.3983 20.2971Z" fill="white" stroke="#333333" stroke-width="3" stroke-miterlimit="10" stroke-linecap="round" stroke-linejoin="round"/>
<path d="M45.8838 47.1672V33.481C45.8838 29.0863 49.505 25.4451 53.8755 25.4451C58.2459 25.4451 61.8671 29.0863 61.8671 33.481V47.1672" fill="#FFE14E"/>
<path d="M45.8838 47.1672V33.481C45.8838 29.0863 49.505 25.4451 53.8755 25.4451C58.2459 25.4451 61.8671 29.0863 61.8671 33.481V47.1672" stroke="#333333" stroke-width="3" stroke-miterlimit="10" stroke-linecap="round" stroke-linejoin="round"/>
<path d="M53.9998 20.2971C56.4136 20.2971 58.3703 18.3295 58.3703 15.9025C58.3703 13.4754 56.4136 11.5078 53.9998 11.5078C51.5861 11.5078 49.6294 13.4754 49.6294 15.9025C49.6294 18.3295 51.5861 20.2971 53.9998 20.2971Z" fill="#FFE14E" stroke="#333333" stroke-width="3" stroke-miterlimit="10" stroke-linecap="round" stroke-linejoin="round"/>
<path d="M67.6108 47.1672V33.481C67.6108 29.0863 71.2321 25.4451 75.6025 25.4451C79.973 25.4451 83.5942 29.0863 83.5942 33.481V47.1672" fill="white"/>
<path d="M67.6108 47.1672V33.481C67.6108 29.0863 71.2321 25.4451 75.6025 25.4451C79.973 25.4451 83.5942 29.0863 83.5942 33.481V47.1672" stroke="#333333" stroke-width="3" stroke-miterlimit="10" stroke-linecap="round" stroke-linejoin="round"/>
<path d="M75.6014 20.2971C78.0151 20.2971 79.9718 18.3295 79.9718 15.9025C79.9718 13.4754 78.0151 11.5078 75.6014 11.5078C73.1877 11.5078 71.231 13.4754 71.231 15.9025C71.231 18.3295 73.1877 20.2971 75.6014 20.2971Z" fill="white" stroke="#333333" stroke-width="3" stroke-miterlimit="10" stroke-linecap="round" stroke-linejoin="round"/>
<path d="M89.3379 53.1941H18.6615C16.7885 53.1941 15.29 51.6874 15.29 49.804C15.29 47.9206 16.7885 46.4138 18.6615 46.4138H89.3379C91.211 46.4138 92.7094 47.9206 92.7094 49.804C92.7094 51.6874 91.211 53.1941 89.3379 53.1941Z" fill="white" stroke="#333333" stroke-width="3" stroke-miterlimit="10" stroke-linecap="round" stroke-linejoin="round"/>
<path d="M74.9775 80.8176C76.8506 73.6606 76.6008 63.3646 76.6008 63.3646C76.3511 61.4811 75.1024 59.8489 73.1045 59.8489C71.2314 59.8489 69.733 61.3556 69.6081 63.239C69.6081 63.239 69.6081 69.6426 69.6081 69.7682V60.4767C69.6081 58.5932 68.1097 56.9609 66.2366 56.9609C64.3636 56.9609 62.7403 58.4677 62.6154 60.3511V66.8803V57.9654C62.6154 56.082 61.117 54.4497 59.2439 54.4497C57.3709 54.4497 55.7476 55.9565 55.6227 57.8399V64.2435V48.2972C55.6227 46.4138 54.1243 44.7815 52.2512 44.7815C50.2533 44.7815 48.63 46.2882 48.63 48.2972V62.3601C48.63 65.3736 48.7549 68.2615 49.1295 71.2749L44.2595 66.378C42.886 64.9969 40.7632 64.9969 39.3896 66.2525C38.016 67.6337 38.016 69.3915 39.2647 71.2749L45.8828 81.3198C49.5041 86.4679 50.8776 88.9791 51.502 92.8715C51.6269 93.4993 52.1263 94.0015 52.7507 94.0015H70.2325C70.9817 94.0015 71.606 93.3737 71.4812 92.6204C71.4812 90.6114 74.8527 80.9432 74.9775 80.8176Z" fill="white" stroke="#333333" stroke-width="3" stroke-miterlimit="10" stroke-linecap="round" stroke-linejoin="round"/>
<path d="M69.6078 96.3874H52.126C50.0032 96.3874 48.3799 94.7551 48.3799 92.6206C48.3799 90.4861 50.0032 88.8538 52.126 88.8538H69.6078C71.7306 88.8538 73.3539 90.4861 73.3539 92.6206C73.3539 94.6296 71.7306 96.3874 69.6078 96.3874Z" fill="white" stroke="#333333" stroke-width="3" stroke-miterlimit="10" stroke-linecap="round" stroke-linejoin="round"/>
</svg>
