<svg id="Layer_1" data-name="Layer 1" xmlns="http://www.w3.org/2000/svg" viewBox="0 0 47 45"><defs><style>.cls-1{fill:#e4e4e4;}</style></defs><title>star00</title><path class="cls-1" d="M24.87,1.19l6,12.14a1.56,1.56,0,0,0,1.15.84l13.4,1.94a1.53,1.53,0,0,1,.85,2.61l-9.69,9.45a1.5,1.5,0,0,0-.44,1.36l2.28,13.34a1.52,1.52,0,0,1-2.21,1.61l-12-6.3a1.55,1.55,0,0,0-1.42,0l-12,6.3a1.52,1.52,0,0,1-2.21-1.61l2.28-13.34a1.5,1.5,0,0,0-.44-1.36L.74,18.72a1.53,1.53,0,0,1,.85-2.61L15,14.17a1.56,1.56,0,0,0,1.15-.84l6-12.14A1.53,1.53,0,0,1,24.87,1.19Z"/></svg>