<?xml version="1.0" encoding="utf-8"?>
<!-- Generator: Adobe Illustrator 24.1.2, SVG Export Plug-In . SVG Version: 6.00 Build 0)  -->
<svg version="1.1" id="Layer_1" xmlns="http://www.w3.org/2000/svg" xmlns:xlink="http://www.w3.org/1999/xlink" x="0px" y="0px"
	 viewBox="0 0 47 45" style="enable-background:new 0 0 47 45;" xml:space="preserve">
<style type="text/css">
	.st0{fill:#E4E4E4;}
	.st1{clip-path:url(#SVGID_2_);fill:#FDD93F;}
</style>
<path class="st0" d="M24.9,1.2l6,12.1c0.2,0.4,0.7,0.8,1.1,0.8l13.4,1.9c0.8,0.1,1.4,0.9,1.3,1.7c0,0.3-0.2,0.6-0.4,0.9l-9.7,9.5
	c-0.4,0.3-0.5,0.9-0.4,1.4l2.3,13.3c0.1,0.8-0.4,1.6-1.2,1.8c-0.3,0.1-0.7,0-1-0.2l-12-6.3c-0.4-0.2-1-0.2-1.4,0l-12,6.3
	c-0.7,0.4-1.7,0.1-2.1-0.6c-0.2-0.3-0.2-0.6-0.2-1l2.3-13.3c0.1-0.5-0.1-1-0.4-1.4l-9.7-9.5c-0.6-0.6-0.6-1.6,0-2.2
	c0.2-0.2,0.5-0.4,0.9-0.4L15,14.2c0.5-0.1,0.9-0.4,1.1-0.8l6-12.1c0.4-0.8,1.3-1,2.1-0.7C24.5,0.7,24.7,0.9,24.9,1.2z"/>
<g>
	<defs>
		<path id="SVGID_1_" d="M24.9,1.2l6,12.1c0.2,0.4,0.7,0.8,1.1,0.8l13.4,1.9c0.8,0.1,1.4,0.9,1.3,1.7c0,0.3-0.2,0.6-0.4,0.9
			l-9.7,9.5c-0.4,0.3-0.5,0.9-0.4,1.4l2.3,13.3c0.1,0.8-0.4,1.6-1.2,1.8c-0.3,0.1-0.7,0-1-0.2l-12-6.3c-0.4-0.2-1-0.2-1.4,0l-12,6.3
			c-0.7,0.4-1.7,0.1-2.1-0.6c-0.2-0.3-0.2-0.6-0.2-1l2.3-13.3c0.1-0.5-0.1-1-0.4-1.4l-9.7-9.5c-0.6-0.6-0.6-1.6,0-2.2
			c0.2-0.2,0.5-0.4,0.9-0.4L15,14.2c0.5-0.1,0.9-0.4,1.1-0.8l6-12.1c0.4-0.8,1.3-1,2.1-0.7C24.5,0.7,24.7,0.9,24.9,1.2z"/>
	</defs>
	<clipPath id="SVGID_2_">
		<use xlink:href="#SVGID_1_"  style="overflow:visible;"/>
	</clipPath>
	<polygon class="st1" points="4.7,0 4.7,0 0,0 0,45 4.7,45 4.7,45 9.4,45 9.4,0 	"/>
</g>
</svg>
