<svg width="24" height="24" viewBox="0 0 24 24" fill="none" xmlns="http://www.w3.org/2000/svg">
<mask id="mask0" mask-type="alpha" maskUnits="userSpaceOnUse" x="0" y="0" width="24" height="24">
<circle cx="12" cy="12" r="12" fill="#F25840"/>
</mask>
<g mask="url(#mask0)">
<circle cx="12" cy="12" r="12" fill="#DDE1E4"/>
<path d="M12.0001 7.64181C8.20231 7.64181 5.70534 8.79727 3.83658 10.8279C1.99637 12.8398 0.987427 15.4498 1.00012 18.15V26.1012C1.00012 27.702 2.31999 28.9976 3.9508 28.9976H7.03156C8.59256 28.9976 9.8585 27.755 9.8585 26.2227C9.8585 25.061 10.8167 24.1204 12.0001 24.1204C13.1836 24.1204 14.1417 25.061 14.1417 26.2227C14.1417 27.755 15.4077 28.9976 16.9687 28.9976H20.0526C21.6834 28.9976 23.0033 27.702 23.0033 26.1012V15.3625C23.0033 10.7469 20.0145 6.64207 15.5663 5.14402C14.1639 4.67062 12.6315 5.40252 12.1492 6.77911C12.0477 7.05629 12.0001 7.34905 12.0001 7.64181Z" fill="#B3B8BC"/>
<path d="M16.8609 20.3526H7.13952C5.4516 20.3526 4.08414 19.0102 4.08414 17.3534V16.8737C4.08414 12.9526 7.32354 9.77277 11.3181 9.77277H12.6823C16.6769 9.77277 19.9163 12.9526 19.9163 16.8737V17.3534C19.9163 19.0102 18.5488 20.3526 16.8609 20.3526Z" fill="#FFFFFE"/>
<path d="M13.7824 15.6995C13.7824 16.5093 12.9828 17.1664 11.9993 17.1664C11.0157 17.1664 10.2162 16.5093 10.2162 15.6995H13.7824Z" fill="#B3B8BC"/>
<path d="M9.73771 15.4133C10.0321 15.4133 10.2707 15.1791 10.2707 14.8901C10.2707 14.6011 10.0321 14.3669 9.73771 14.3669C9.44332 14.3669 9.20468 14.6011 9.20468 14.8901C9.20468 15.1791 9.44332 15.4133 9.73771 15.4133Z" fill="#B3B8BC"/>
<path d="M14.2611 15.4133C14.5555 15.4133 14.7942 15.1791 14.7942 14.8901C14.7942 14.6011 14.5555 14.3669 14.2611 14.3669C13.9668 14.3669 13.7281 14.6011 13.7281 14.8901C13.7281 15.1791 13.9668 15.4133 14.2611 15.4133Z" fill="#B3B8BC"/>
</g>
</svg>
